<svg id="Layer_1" data-name="Layer 1" xmlns="http://www.w3.org/2000/svg" viewBox="0 0 95.68 91.86"><defs><style>.cls-1{fill:#003153;}</style></defs><path class="cls-1" d="M19.05,65.64V34.34a4.68,4.68,0,0,1,1.35-3.66,5,5,0,0,1,3.48-1.22,5.17,5.17,0,0,1,3.56,1.2,4.67,4.67,0,0,1,1.37,3.68v31.3a4.68,4.68,0,0,1-1.37,3.68,5.08,5.08,0,0,1-3.56,1.22,5,5,0,0,1-3.47-1.23A4.7,4.7,0,0,1,19.05,65.64Z" transform="translate(-2.16 -4.07)"/><path class="cls-1" d="M76,36.77H65.31V65.64A4.73,4.73,0,0,1,64,69.34a5.68,5.68,0,0,1-7,0,4.68,4.68,0,0,1-1.37-3.68V36.77H44.94a6.22,6.22,0,0,1-3.71-.9A2.87,2.87,0,0,1,40,33.47,2.83,2.83,0,0,1,41.28,31a6.26,6.26,0,0,1,3.66-.9H76a6.25,6.25,0,0,1,3.77.93,3,3,0,0,1,0,4.81A6.4,6.4,0,0,1,76,36.77Z" transform="translate(-2.16 -4.07)"/><path class="cls-1" d="M38.67,7.08a25.8,25.8,0,0,1,5.41.81A27.85,27.85,0,0,0,50,8.76a27.85,27.85,0,0,0,5.92-.87,25.8,25.8,0,0,1,5.41-.81,8.11,8.11,0,0,1,2.5.36c2.49.81,4.43,3,6.31,5.15a26.5,26.5,0,0,0,4.1,4,27.18,27.18,0,0,0,5.16,2.7c2.72,1.18,5.28,2.29,6.79,4.37s1.77,4.83,2.06,7.76a27.7,27.7,0,0,0,1,5.79,25.77,25.77,0,0,0,2.54,5.06c1.46,2.46,3,5,3,7.69s-1.51,5.23-3,7.69a25.77,25.77,0,0,0-2.54,5.06,27.7,27.7,0,0,0-1,5.79c-.29,2.93-.56,5.7-2.06,7.76s-4.07,3.19-6.79,4.37a27.18,27.18,0,0,0-5.16,2.7,26.5,26.5,0,0,0-4.1,4c-1.88,2.13-3.82,4.34-6.31,5.15a8.11,8.11,0,0,1-2.5.36,25.8,25.8,0,0,1-5.41-.81A27.85,27.85,0,0,0,50,91.24a27.85,27.85,0,0,0-5.92.87,25.8,25.8,0,0,1-5.41.81,8.11,8.11,0,0,1-2.5-.36c-2.49-.81-4.43-3-6.31-5.15a26.5,26.5,0,0,0-4.1-4,27.18,27.18,0,0,0-5.16-2.7c-2.72-1.18-5.28-2.29-6.79-4.37S12,71.47,11.75,68.54a27.7,27.7,0,0,0-1-5.79,25.77,25.77,0,0,0-2.54-5.06c-1.46-2.46-3-5-3-7.69s1.51-5.23,3-7.69a25.77,25.77,0,0,0,2.54-5.06,27.7,27.7,0,0,0,1-5.79c.29-2.93.56-5.7,2.06-7.76s4.07-3.19,6.79-4.37a27.18,27.18,0,0,0,5.16-2.7,26.5,26.5,0,0,0,4.1-4c1.88-2.13,3.82-4.34,6.31-5.15a8.11,8.11,0,0,1,2.5-.36m0-.71a8.62,8.62,0,0,0-2.72.4C31.54,8.2,29,13.39,25.34,16.06s-9.41,3.52-12.11,7.22S11.52,32.62,10.09,37c-1.38,4.26-5.54,8.26-5.54,13s4.16,8.71,5.54,13c1.43,4.41.47,10.08,3.14,13.75s8.4,4.53,12.11,7.22S31.54,91.8,36,93.23a8.62,8.62,0,0,0,2.72.4C42.28,93.63,46.26,92,50,92s7.72,1.68,11.33,1.68a8.62,8.62,0,0,0,2.72-.4c4.41-1.43,6.94-6.62,10.61-9.29s9.41-3.52,12.11-7.22S88.48,67.38,89.91,63s5.54-8.26,5.54-13-4.16-8.71-5.54-13c-1.43-4.41-.47-10.08-3.14-13.75s-8.4-4.53-12.11-7.22S68.46,8.2,64.05,6.77a8.62,8.62,0,0,0-2.72-.4c-3.61,0-7.59,1.68-11.33,1.68S42.28,6.37,38.67,6.37Z" transform="translate(-2.16 -4.07)"/><path class="cls-1" d="M38.08,4.82a27.29,27.29,0,0,1,5.69.86A29.47,29.47,0,0,0,50,6.59a29.47,29.47,0,0,0,6.23-.91,27.29,27.29,0,0,1,5.69-.86,8.67,8.67,0,0,1,2.64.38c2.62.85,4.66,3.18,6.64,5.43a28.42,28.42,0,0,0,4.32,4.25A28.8,28.8,0,0,0,81,17.71c2.86,1.24,5.55,2.42,7.15,4.61S90,27.4,90.26,30.49a29.27,29.27,0,0,0,1,6.09A26.84,26.84,0,0,0,94,41.91c1.53,2.59,3.12,5.27,3.12,8.09S95.5,55.5,94,58.09a26.84,26.84,0,0,0-2.67,5.33,29.27,29.27,0,0,0-1,6.09c-.3,3.09-.59,6-2.16,8.17S83.81,81.05,81,82.29a28.8,28.8,0,0,0-5.43,2.83,28.42,28.42,0,0,0-4.32,4.25c-2,2.25-4,4.58-6.64,5.43a8.72,8.72,0,0,1-2.64.38,27.29,27.29,0,0,1-5.69-.86A29.47,29.47,0,0,0,50,93.41a29.47,29.47,0,0,0-6.23.91,27.29,27.29,0,0,1-5.69.86,8.72,8.72,0,0,1-2.64-.38c-2.62-.85-4.66-3.18-6.64-5.43a28.42,28.42,0,0,0-4.32-4.25,28.8,28.8,0,0,0-5.43-2.83c-2.86-1.24-5.55-2.42-7.15-4.61S10,72.6,9.74,69.51a29.27,29.27,0,0,0-1-6.09A26.84,26.84,0,0,0,6,58.09C4.5,55.5,2.91,52.82,2.91,50S4.5,44.5,6,41.91A26.84,26.84,0,0,0,8.7,36.58a29.27,29.27,0,0,0,1-6.09c.3-3.09.58-6,2.16-8.17s4.29-3.37,7.15-4.61a28.8,28.8,0,0,0,5.43-2.83,28.42,28.42,0,0,0,4.32-4.25c2-2.25,4-4.58,6.64-5.43a8.72,8.72,0,0,1,2.64-.38m0-.75a9.19,9.19,0,0,0-2.87.42c-4.64,1.51-7.3,7-11.17,9.78S14.13,18,11.29,21.88,9.5,31.71,8,36.35C6.54,40.83,2.16,45,2.16,50S6.54,59.17,8,63.65c1.51,4.64.49,10.61,3.3,14.47S20.14,82.89,24,85.73,30.57,94,35.21,95.51a9.19,9.19,0,0,0,2.87.42c3.8,0,8-1.77,11.92-1.77s8.12,1.77,11.92,1.77a9.19,9.19,0,0,0,2.87-.42c4.64-1.51,7.3-7,11.17-9.78S85.87,82,88.71,78.12,90.5,68.29,92,63.65C93.46,59.17,97.84,55,97.84,50S93.46,40.83,92,36.35c-1.51-4.64-.49-10.61-3.3-14.47S79.86,17.11,76,14.27,69.43,6,64.79,4.49a9.19,9.19,0,0,0-2.87-.42c-3.8,0-8,1.77-11.92,1.77S41.88,4.07,38.08,4.07Z" transform="translate(-2.16 -4.07)"/></svg>