<svg id="Layer_1" data-name="Layer 1" xmlns="http://www.w3.org/2000/svg" viewBox="0 0 96 77.38"><defs><style>.cls-1{fill:#fff;stroke:#003153;stroke-miterlimit:10;stroke-width:11px;}</style></defs><path class="cls-1" d="M7.5,75.26V24.69c0-2.62.72-4.59,2.18-5.91a8.06,8.06,0,0,1,5.62-2,8.37,8.37,0,0,1,5.76,2q2.21,1.95,2.2,5.93V75.26c0,2.66-.73,4.64-2.2,6a8.34,8.34,0,0,1-5.76,2,8.08,8.08,0,0,1-5.6-2Q7.5,79.21,7.5,75.26Z" transform="translate(-2 -11.31)"/><path class="cls-1" d="M84.43,40.63H67.23V75.26q0,4-2.18,6a8.09,8.09,0,0,1-5.62,2,8.21,8.21,0,0,1-5.7-2c-1.48-1.32-2.21-3.3-2.21-6V40.63H34.32q-4,0-6-1.46a4.68,4.68,0,0,1-1.77-2.44c-.13-.45-.2-12.93-.2-13.44a4.58,4.58,0,0,1,2-3.94,10.25,10.25,0,0,1,5.92-1.44H84.43c2.72,0,4.75.49,6.08,1.49a4.65,4.65,0,0,1,2,3.89c0,.52-.07,13-.21,13.47a4.73,4.73,0,0,1-1.81,2.41Q88.47,40.63,84.43,40.63Z" transform="translate(-2 -11.31)"/></svg>