<svg id="Layer_1" data-name="Layer 1" xmlns="http://www.w3.org/2000/svg" viewBox="0 0 88.88 27.89"><defs><style>.cls-1{fill:none;stroke:#003153;stroke-linecap:round;stroke-linejoin:round;stroke-width:2px;}</style></defs><path class="cls-1" d="M11.79,39.22v16a30.94,30.94,0,0,0-5.23,2.24v-16A30.94,30.94,0,0,1,11.79,39.22Z" transform="translate(-5.56 -35.89)"/><path class="cls-1" d="M15.22,54.24V43.85a6.82,6.82,0,0,1,6.58-7,5.56,5.56,0,0,1,4.56,1.57,6.54,6.54,0,0,1,1.58,4.67V53.36a41.51,41.51,0,0,0-5.23-.11V43c0-1-.39-1.46-1.15-1.41s-1.11.57-1.11,1.55V53.4A31.63,31.63,0,0,0,15.22,54.24Z" transform="translate(-5.56 -35.89)"/><path class="cls-1" d="M45.91,45.46V56.87c-2.1-.57-3.14-.85-5.24-1.36V44.11c-1.6-.39-2.4-.57-4-.9V38.62C42,39.69,44.61,40.5,49.9,42v4.6Z" transform="translate(-5.56 -35.89)"/><path class="cls-1" d="M64.46,45.61V56a4.59,4.59,0,0,1-1.79,4,5.67,5.67,0,0,1-4.79.53,8.07,8.07,0,0,1-4.56-2.81,7.92,7.92,0,0,1-1.58-5V42.49c2.09.58,3.14.87,5.23,1.41V54.11a1.57,1.57,0,0,0,1.15,1.75c.74.19,1.11-.21,1.11-1.19V44.47C61.32,45,62.37,45.21,64.46,45.61Z" transform="translate(-5.56 -35.89)"/><path class="cls-1" d="M67.55,62.13V51.75a4.93,4.93,0,0,1,1.8-4.13,7.11,7.11,0,0,1,4.79-1.27,6.74,6.74,0,0,1,4.55,1.52,5.76,5.76,0,0,1,1.58,4.44V62.53a35.23,35.23,0,0,1-5.23.24V52.55c0-1-.38-1.47-1.15-1.49s-1.11.43-1.11,1.41V62.69A51.56,51.56,0,0,1,67.55,62.13Z" transform="translate(-5.56 -35.89)"/><path class="cls-1" d="M93.11,48.94V52.5A32.06,32.06,0,0,1,89.69,54a3.12,3.12,0,0,0-1,.55,1,1,0,0,0-.29.74c0,.33.1.52.3.56a3,3,0,0,0,1.21-.3A32.33,32.33,0,0,0,93.44,54v4.57a32.23,32.23,0,0,1-4.11,1.84c-1.93.73-3.41.69-4.44.09a3.52,3.52,0,0,1-1.53-3.31V50.89A5.52,5.52,0,0,1,84.81,47a9.93,9.93,0,0,1,4.08-2.48,31.06,31.06,0,0,0,4.55-2v4.6a30.09,30.09,0,0,1-3.34,1.53c-.9.37-1.35.78-1.35,1.32,0,.31.11.49.32.53a2.45,2.45,0,0,0,1.15-.26C91.37,49.79,92,49.52,93.11,48.94Z" transform="translate(-5.56 -35.89)"/></svg>